<?xml version="1.0" standalone="no"?>
<!DOCTYPE svg PUBLIC "-//W3C//DTD SVG 20010904//EN"
 "http://www.w3.org/TR/2001/REC-SVG-20010904/DTD/svg10.dtd">
<svg version="1.0" xmlns="http://www.w3.org/2000/svg"
 width="512.000000pt" height="512.000000pt" viewBox="0 0 512.000000 512.000000"
 preserveAspectRatio="xMidYMid meet">
<metadata>
Created by potrace 1.14, written by Peter Selinger 2001-2017
</metadata>
<g transform="translate(0.000000,512.000000) scale(0.100000,-0.100000)"
fill="#000000" stroke="none">
<path d="M2512 4467 c-21 -22 -22 -32 -22 -194 0 -157 2 -172 21 -197 13 -17
30 -26 49 -26 19 0 36 9 49 26 19 25 21 40 21 199 0 166 -1 172 -23 193 -30
28 -68 28 -95 -1z"/>
<path d="M4276 3925 c-14 -7 -77 -66 -141 -130 -108 -108 -116 -119 -111 -148
6 -35 38 -67 67 -67 39 0 279 242 279 280 0 55 -48 89 -94 65z"/>
<path d="M766 3908 c-33 -47 -23 -67 102 -192 66 -65 126 -123 135 -128 43
-23 105 28 93 77 -4 14 -60 79 -126 145 -107 106 -124 120 -155 120 -24 0 -39
-7 -49 -22z"/>
<path d="M2024 3840 c-88 -24 -143 -56 -204 -120 -63 -64 -104 -140 -119 -226
-6 -32 -11 -58 -11 -59 0 -1 -17 -2 -38 -3 -194 -8 -371 -124 -453 -297 -65
-140 -72 -285 -18 -423 13 -34 12 -38 -22 -53 -70 -29 -172 -122 -230 -211
-56 -87 -83 -180 -85 -301 -2 -118 11 -180 62 -283 40 -81 161 -203 242 -243
51 -26 62 -36 56 -49 -4 -9 -8 -58 -10 -109 -3 -70 1 -104 15 -145 69 -197
231 -312 439 -311 l62 1 20 -46 c27 -61 95 -142 152 -181 138 -96 319 -105
470 -24 113 62 216 210 220 320 1 39 7 37 14 -3 28 -167 141 -296 306 -353 68
-23 209 -22 275 2 42 16 130 70 168 104 28 24 83 105 100 147 15 34 15 34 83
34 215 0 399 146 443 353 11 50 7 161 -6 205 -6 19 2 26 57 55 97 51 196 155
246 259 51 107 62 161 58 280 -6 182 -84 331 -232 447 -28 22 -66 45 -83 53
-26 10 -31 17 -26 34 44 153 50 251 20 351 -35 121 -86 198 -185 277 -82 65
-203 110 -297 110 -24 0 -43 3 -44 6 0 4 -2 14 -4 22 -2 8 -6 31 -9 50 -12 63
-68 163 -122 217 -184 179 -473 168 -644 -24 -54 -60 -100 -161 -103 -220 -1
-28 -15 -11 -20 25 -7 57 -55 149 -108 206 -106 116 -285 168 -435 126z"/>
<path d="M270 2132 c-72 -4 -87 -10 -99 -40 -15 -36 0 -79 31 -91 13 -5 96 -9
185 -9 148 -1 164 1 187 19 31 24 34 67 9 98 -16 19 -29 21 -143 24 -69 1
-145 1 -170 -1z"/>
<path d="M4635 2132 c-67 -2 -83 -6 -97 -23 -26 -31 -23 -74 7 -97 22 -18 42
-20 186 -20 88 -1 170 3 182 7 12 5 28 20 36 34 11 21 11 30 -4 61 l-17 36
-77 1 c-42 0 -89 1 -106 2 -16 1 -66 1 -110 -1z"/>
</g>
</svg>
